<svg version="1.1" xmlns="http://www.w3.org/2000/svg" viewBox="0 0 1777.6389010203984 1826.5326483303038" width="1777.6389010203984" height="1826.5326483303038" filter="invert(93%) hue-rotate(180deg)" class="excalidraw-svg">
  <!-- svg-source:excalidraw -->
  
  <defs>
    <style class="style-fonts">
      @font-face {
        font-family: "Virgil";
        src: url("https://excalidraw.com/Virgil.woff2");
      }
      @font-face {
        font-family: "Cascadia";
        src: url("https://excalidraw.com/Cascadia.woff2");
      }
      @font-face {
        font-family: "Assistant";
        src: url("https://excalidraw.com/Assistant-Regular.woff2");
      }
    </style>
    
  </defs>
  <rect x="0" y="0" width="1777.6389010203984" height="1826.5326483303038" fill="#ffffff"></rect><g stroke-linecap="round" transform="translate(10.67645715593926 67.14649561666101) rotate(0 655.2170473911588 405.9911458518042)"><path d="M0 0 L1310.43 0 L1310.43 811.98 L0 811.98" stroke="none" stroke-width="0" fill="#fff0f6"></path><path d="M0 0 C271.15 0, 542.29 0, 1310.43 0 M0 0 C515.86 0, 1031.72 0, 1310.43 0 M1310.43 0 C1310.43 206.87, 1310.43 413.73, 1310.43 811.98 M1310.43 0 C1310.43 201.77, 1310.43 403.54, 1310.43 811.98 M1310.43 811.98 C1048.01 811.98, 785.59 811.98, 0 811.98 M1310.43 811.98 C816.06 811.98, 321.69 811.98, 0 811.98 M0 811.98 C0 575.56, 0 339.14, 0 0 M0 811.98 C0 551.63, 0 291.27, 0 0" stroke="#c2255c" stroke-width="1" fill="none"></path></g><g stroke-linecap="round" transform="translate(521.6590168641487 122.74467903448385) rotate(0 389.8917285606432 182.17190247266842)"><path d="M0 0 L779.78 0 L779.78 364.34 L0 364.34" stroke="none" stroke-width="0" fill="#a5d8ff"></path><path d="M0 0 C266.4 0, 532.8 0, 779.78 0 M0 0 C263.6 0, 527.2 0, 779.78 0 M779.78 0 C779.78 86.7, 779.78 173.41, 779.78 364.34 M779.78 0 C779.78 87.83, 779.78 175.65, 779.78 364.34 M779.78 364.34 C481.47 364.34, 183.15 364.34, 0 364.34 M779.78 364.34 C603.26 364.34, 426.74 364.34, 0 364.34 M0 364.34 C0 269.08, 0 173.82, 0 0 M0 364.34 C0 224.47, 0 84.6, 0 0" stroke="#1971c2" stroke-width="1" fill="none"></path></g><g stroke-linecap="round" transform="translate(12.260844624318452 955.7303444647742) rotate(0 657.2680549221492 373.3289578021082)"><path d="M0 0 L1314.54 0 L1314.54 746.66 L0 746.66" stroke="none" stroke-width="0" fill="#e7f5ff"></path><path d="M0 0 C462.64 0, 925.28 0, 1314.54 0 M0 0 C438.39 0, 876.79 0, 1314.54 0 M1314.54 0 C1314.54 188.94, 1314.54 377.88, 1314.54 746.66 M1314.54 0 C1314.54 271.97, 1314.54 543.94, 1314.54 746.66 M1314.54 746.66 C850.1 746.66, 385.66 746.66, 0 746.66 M1314.54 746.66 C966.35 746.66, 618.17 746.66, 0 746.66 M0 746.66 C0 450.81, 0 154.97, 0 0 M0 746.66 C0 560.67, 0 374.69, 0 0" stroke="#4dabf7" stroke-width="1" fill="none"></path></g><g stroke-linecap="round" transform="translate(449.6235546874616 975.2396676879409) rotate(0 422.06854237755584 164.56720158979255)"><path d="M0 0 L844.14 0 L844.14 329.13 L0 329.13" stroke="none" stroke-width="0" fill="#a5d8ff"></path><path d="M0 0 C205.81 0, 411.61 0, 844.14 0 M0 0 C237.42 0, 474.84 0, 844.14 0 M844.14 0 C844.14 123.92, 844.14 247.84, 844.14 329.13 M844.14 0 C844.14 75.59, 844.14 151.18, 844.14 329.13 M844.14 329.13 C658.16 329.13, 472.18 329.13, 0 329.13 M844.14 329.13 C529.35 329.13, 214.57 329.13, 0 329.13 M0 329.13 C0 261.9, 0 194.67, 0 0 M0 329.13 C0 207.22, 0 85.31, 0 0" stroke="#1971c2" stroke-width="1" fill="none"></path></g><g stroke-linecap="round" transform="translate(23.486049155819273 124.74290919850046) rotate(0 241.43989133478385 133.188137774339)"><path d="M0 0 L482.88 0 L482.88 266.38 L0 266.38" stroke="none" stroke-width="0" fill="#ffec99"></path><path d="M0 0 C120.09 0, 240.17 0, 482.88 0 M0 0 C188.91 0, 377.82 0, 482.88 0 M482.88 0 C482.88 92.5, 482.88 185, 482.88 266.38 M482.88 0 C482.88 53.94, 482.88 107.88, 482.88 266.38 M482.88 266.38 C305.37 266.38, 127.87 266.38, 0 266.38 M482.88 266.38 C327.88 266.38, 172.87 266.38, 0 266.38 M0 266.38 C0 206.73, 0 147.08, 0 0 M0 266.38 C0 170.89, 0 75.4, 0 0" stroke="#f08c00" stroke-width="1" fill="none"></path></g><g transform="translate(100.87808892810312 237.2310469728394) rotate(0 164.0478515625 20.69999999999999)"><text x="164.0478515625" y="0" font-family="Helvetica, Segoe UI Emoji" font-size="36px" fill="#1e1e1e" text-anchor="middle" style="white-space: pre;" direction="ltr" dominant-baseline="text-before-edge">Framework interface</text></g><g stroke-linecap="round" transform="translate(21.111132782027198 446.47459381102317) rotate(0 242.06209790722608 86)"><path d="M0 0 L484.12 0 L484.12 172 L0 172" stroke="none" stroke-width="0" fill="#99e9f2"></path><path d="M0 0 C140.6 0, 281.19 0, 484.12 0 M0 0 C97.56 0, 195.11 0, 484.12 0 M484.12 0 C484.12 61.13, 484.12 122.25, 484.12 172 M484.12 0 C484.12 46.66, 484.12 93.31, 484.12 172 M484.12 172 C377.13 172, 270.13 172, 0 172 M484.12 172 C373.11 172, 262.09 172, 0 172 M0 172 C0 107.98, 0 43.97, 0 0 M0 172 C0 122.9, 0 73.79, 0 0" stroke="#0c8599" stroke-width="1" fill="none"></path></g><g transform="translate(116.09705881425339 511.7745938110232) rotate(0 147.076171875 20.69999999999999)"><text x="147.076171875" y="0" font-family="Helvetica, Segoe UI Emoji" font-size="36px" fill="#1e1e1e" text-anchor="middle" style="white-space: pre;" direction="ltr" dominant-baseline="text-before-edge">Task management</text></g><g stroke-linecap="round" transform="translate(577.1929575412964 213.37264406275926) rotate(0 74.5 30)"><path d="M0 0 L149 0 L149 60 L0 60" stroke="none" stroke-width="0" fill="#a5d8ff"></path><path d="M0 0 C47.68 0, 95.35 0, 149 0 M0 0 C49.25 0, 98.5 0, 149 0 M149 0 C149 20.87, 149 41.74, 149 60 M149 0 C149 21.5, 149 43, 149 60 M149 60 C105.95 60, 62.9 60, 0 60 M149 60 C95.7 60, 42.4 60, 0 60 M0 60 C0 38.88, 0 17.77, 0 0 M0 60 C0 39.99, 0 19.98, 0 0" stroke="#1e1e1e" stroke-width="1" fill="none"></path></g><g transform="translate(611.1167856662964 220.37264406275926) rotate(0 40.576171875 23)"><text x="40.576171875" y="0" font-family="Helvetica, Segoe UI Emoji" font-size="20px" fill="#1e1e1e" text-anchor="middle" style="white-space: pre;" direction="ltr" dominant-baseline="text-before-edge">Message</text><text x="40.576171875" y="23" font-family="Helvetica, Segoe UI Emoji" font-size="20px" fill="#1e1e1e" text-anchor="middle" style="white-space: pre;" direction="ltr" dominant-baseline="text-before-edge">dispatch</text></g><g stroke-linecap="round" transform="translate(811.9168289627496 188.11188132421194) rotate(0 236.04714148062024 120.50740199792605)"><path d="M0 0 L472.09 0 L472.09 241.01 L0 241.01" stroke="none" stroke-width="0" fill="#eebefa"></path><path d="M0 0 C173.54 0, 347.08 0, 472.09 0 M0 0 C151.54 0, 303.08 0, 472.09 0 M472.09 0 C472.09 53.97, 472.09 107.94, 472.09 241.01 M472.09 0 C472.09 86.4, 472.09 172.8, 472.09 241.01 M472.09 241.01 C324.41 241.01, 176.72 241.01, 0 241.01 M472.09 241.01 C365.61 241.01, 259.13 241.01, 0 241.01 M0 241.01 C0 180.55, 0 120.08, 0 0 M0 241.01 C0 146.02, 0 51.02, 0 0" stroke="#9c36b5" stroke-width="1" fill="none"></path></g><g transform="translate(916.8838923183698 287.91928332213797) rotate(0 131.080078125 20.69999999999999)"><text x="131.080078125" y="0" font-family="Helvetica, Segoe UI Emoji" font-size="36px" fill="#1e1e1e" text-anchor="middle" style="white-space: pre;" direction="ltr" dominant-baseline="text-before-edge">Protocol handler</text></g><g stroke-linecap="round" transform="translate(1353.6389010203984 836.3552702429938) rotate(0 207 59.5)"><path d="M0 0 C129.51 0, 259.03 0, 414 0 M0 0 C93.38 0, 186.76 0, 414 0 M414 0 C414 29.86, 414 59.71, 414 119 M414 0 C414 46.91, 414 93.81, 414 119 M414 119 C326.22 119, 238.44 119, 0 119 M414 119 C264.93 119, 115.86 119, 0 119 M0 119 C0 87.45, 0 55.89, 0 0 M0 119 C0 82.66, 0 46.32, 0 0" stroke="#1e1e1e" stroke-width="1" fill="none"></path></g><g transform="translate(1377.8117525828984 863.6552702429938) rotate(0 182.8271484375 32.199999999999996)"><text x="182.8271484375" y="0" font-family="Helvetica, Segoe UI Emoji" font-size="28px" fill="#1e1e1e" text-anchor="middle" style="white-space: pre;" direction="ltr" dominant-baseline="text-before-edge">External service OR real-time</text><text x="182.8271484375" y="32.199999999999996" font-family="Helvetica, Segoe UI Emoji" font-size="28px" fill="#1e1e1e" text-anchor="middle" style="white-space: pre;" direction="ltr" dominant-baseline="text-before-edge">medium</text></g><g stroke-linecap="round"><g transform="translate(259.04560119547614 394.77876745661297) rotate(0 0.16122224120272222 25.305398834481707)"><path d="M0 0 C0.07 10.99, 0.14 21.99, 0.32 50.61 M0 0 C0.09 14.61, 0.19 29.23, 0.32 50.61" stroke="#1e1e1e" stroke-width="1" fill="none"></path></g><g transform="translate(259.04560119547614 394.77876745661297) rotate(0 0.16122224120272222 25.305398834481707)"><path d="M0 0 L6.43 13.55 L-6.25 13.63 L0 0" stroke="none" stroke-width="0" fill="#1e1e1e" fill-rule="evenodd"></path><path d="M0 0 C1.4 2.94, 2.79 5.89, 6.43 13.55 M0 0 C1.86 3.91, 3.71 7.83, 6.43 13.55 M6.43 13.55 C1.89 13.58, -2.64 13.61, -6.25 13.63 M6.43 13.55 C2.4 13.58, -1.63 13.61, -6.25 13.63 M-6.25 13.63 C-4.95 10.79, -3.65 7.95, 0 0 M-6.25 13.63 C-4.47 9.76, -2.7 5.88, 0 0 M0 0 C0 0, 0 0, 0 0 M0 0 C0 0, 0 0, 0 0" stroke="#1e1e1e" stroke-width="1" fill="none"></path></g><g transform="translate(259.04560119547614 394.77876745661297) rotate(0 0.16122224120272222 25.305398834481707)"><path d="M0.32 50.61 L-6.1 37.06 L6.57 36.98 L0.32 50.61" stroke="none" stroke-width="0" fill="#1e1e1e" fill-rule="evenodd"></path><path d="M0.32 50.61 C-1.07 47.67, -2.47 44.72, -6.1 37.06 M0.32 50.61 C-1.53 46.7, -3.39 42.78, -6.1 37.06 M-6.1 37.06 C-1.57 37.03, 2.96 37, 6.57 36.98 M-6.1 37.06 C-2.08 37.03, 1.95 37.01, 6.57 36.98 M6.57 36.98 C5.27 39.82, 3.97 42.66, 0.32 50.61 M6.57 36.98 C4.8 40.85, 3.02 44.73, 0.32 50.61 M0.32 50.61 C0.32 50.61, 0.32 50.61, 0.32 50.61 M0.32 50.61 C0.32 50.61, 0.32 50.61, 0.32 50.61" stroke="#1e1e1e" stroke-width="1" fill="none"></path></g></g><mask></mask><g stroke-linecap="round"><g transform="translate(512.1248490321932 531.8022430360392) rotate(0 69.19298332312235 -122.46516963805792)"><path d="M0 0 C32.19 0.29, 64.38 0.59, 138.23 1.26 M0 0 C38.1 0.35, 76.21 0.7, 138.23 1.26 M138.23 1.26 C138.27 -69.71, 138.32 -140.68, 138.39 -246.19 M138.23 1.26 C138.29 -88.06, 138.34 -177.38, 138.39 -246.19" stroke="#1e1e1e" stroke-width="1" fill="none"></path></g><g transform="translate(512.1248490321932 531.8022430360392) rotate(0 69.19298332312235 -122.46516963805792)"><path d="M0 0 L13.65 -6.21 L13.54 6.46 L0 0" stroke="none" stroke-width="0" fill="#1e1e1e" fill-rule="evenodd"></path><path d="M0 0 C3.18 -1.45, 6.36 -2.89, 13.65 -6.21 M0 0 C3.76 -1.71, 7.53 -3.43, 13.65 -6.21 M13.65 -6.21 C13.62 -2.58, 13.59 1.06, 13.54 6.46 M13.65 -6.21 C13.61 -1.64, 13.57 2.94, 13.54 6.46 M13.54 6.46 C8.26 3.94, 2.98 1.42, 0 0 M13.54 6.46 C8.5 4.06, 3.47 1.66, 0 0 M0 0 C0 0, 0 0, 0 0 M0 0 C0 0, 0 0, 0 0" stroke="#1e1e1e" stroke-width="1" fill="none"></path></g><g transform="translate(512.1248490321932 531.8022430360392) rotate(0 69.19298332312235 -122.46516963805792)"><path d="M138.39 -246.19 L144.72 -232.59 L132.04 -232.6 L138.39 -246.19" stroke="none" stroke-width="0" fill="#1e1e1e" fill-rule="evenodd"></path><path d="M138.39 -246.19 C139.86 -243.03, 141.33 -239.86, 144.72 -232.59 M138.39 -246.19 C140.13 -242.44, 141.88 -238.7, 144.72 -232.59 M144.72 -232.59 C141.08 -232.6, 137.44 -232.6, 132.04 -232.6 M144.72 -232.59 C140.14 -232.6, 135.56 -232.6, 132.04 -232.6 M132.04 -232.6 C134.51 -237.9, 136.99 -243.21, 138.39 -246.19 M132.04 -232.6 C134.4 -237.66, 136.76 -242.71, 138.39 -246.19 M138.39 -246.19 C138.39 -246.19, 138.39 -246.19, 138.39 -246.19 M138.39 -246.19 C138.39 -246.19, 138.39 -246.19, 138.39 -246.19" stroke="#1e1e1e" stroke-width="1" fill="none"></path></g></g><mask></mask><g stroke-linecap="round"><g transform="translate(257.1337103479367 626.5732238949173) rotate(0 130.8727207082091 49.83611315381694)"><path d="M0 0 C0.15 24.79, 0.3 49.59, 0.58 97.32 M0 0 C0.14 24.18, 0.29 48.37, 0.58 97.32 M0.58 97.32 C52.88 97.79, 105.18 98.26, 261.75 99.67 M0.58 97.32 C99.11 98.21, 197.63 99.09, 261.75 99.67" stroke="#1e1e1e" stroke-width="1" fill="none"></path></g><g transform="translate(257.1337103479367 626.5732238949173) rotate(0 130.8727207082091 49.83611315381694)"><path d="M0 0 L6.42 13.56 L-6.26 13.63 L0 0" stroke="none" stroke-width="0" fill="#1e1e1e" fill-rule="evenodd"></path><path d="M0 0 C1.64 3.45, 3.27 6.91, 6.42 13.56 M0 0 C1.6 3.37, 3.19 6.74, 6.42 13.56 M6.42 13.56 C3.88 13.57, 1.34 13.59, -6.26 13.63 M6.42 13.56 C1.64 13.59, -3.15 13.61, -6.26 13.63 M-6.26 13.63 C-4.44 9.66, -2.61 5.69, 0 0 M-6.26 13.63 C-4.25 9.26, -2.24 4.89, 0 0 M0 0 C0 0, 0 0, 0 0 M0 0 C0 0, 0 0, 0 0" stroke="#1e1e1e" stroke-width="1" fill="none"></path></g><g transform="translate(257.1337103479367 626.5732238949173) rotate(0 130.8727207082091 49.83611315381694)"><path d="M261.75 99.67 L248.09 105.89 L248.21 93.21 L261.75 99.67" stroke="none" stroke-width="0" fill="#1e1e1e" fill-rule="evenodd"></path><path d="M261.75 99.67 C258.27 101.26, 254.79 102.84, 248.09 105.89 M261.75 99.67 C258.35 101.22, 254.96 102.76, 248.09 105.89 M248.09 105.89 C248.12 103.35, 248.14 100.81, 248.21 93.21 M248.09 105.89 C248.14 101.11, 248.18 96.32, 248.21 93.21 M248.21 93.21 C252.15 95.09, 256.09 96.97, 261.75 99.67 M248.21 93.21 C252.55 95.28, 256.89 97.35, 261.75 99.67 M261.75 99.67 C261.75 99.67, 261.75 99.67, 261.75 99.67 M261.75 99.67 C261.75 99.67, 261.75 99.67, 261.75 99.67" stroke="#1e1e1e" stroke-width="1" fill="none"></path></g></g><mask></mask><g stroke-linecap="round"><g transform="translate(735.995483402681 246.27013935640878) rotate(0 36.086487715472686 -0.43137055416076464)"><path d="M0 0 C23.41 -0.28, 46.81 -0.56, 72.17 -0.86 M0 0 C24.37 -0.29, 48.73 -0.58, 72.17 -0.86" stroke="#1e1e1e" stroke-width="1" fill="none"></path></g><g transform="translate(735.995483402681 246.27013935640878) rotate(0 36.086487715472686 -0.43137055416076464)"><path d="M0 0 L13.52 -6.5 L13.67 6.18 L0 0" stroke="none" stroke-width="0" fill="#1e1e1e" fill-rule="evenodd"></path><path d="M0 0 C4.38 -2.11, 8.77 -4.22, 13.52 -6.5 M0 0 C4.56 -2.19, 9.13 -4.39, 13.52 -6.5 M13.52 -6.5 C13.56 -3.09, 13.6 0.32, 13.67 6.18 M13.52 -6.5 C13.56 -2.74, 13.61 1.02, 13.67 6.18 M13.67 6.18 C9.51 4.3, 5.34 2.41, 0 0 M13.67 6.18 C8.64 3.91, 3.62 1.63, 0 0 M0 0 C0 0, 0 0, 0 0 M0 0 C0 0, 0 0, 0 0" stroke="#1e1e1e" stroke-width="1" fill="none"></path></g><g transform="translate(735.995483402681 246.27013935640878) rotate(0 36.086487715472686 -0.43137055416076464)"><path d="M72.17 -0.86 L58.66 5.64 L58.5 -7.04 L72.17 -0.86" stroke="none" stroke-width="0" fill="#1e1e1e" fill-rule="evenodd"></path><path d="M72.17 -0.86 C67.79 1.25, 63.4 3.35, 58.66 5.64 M72.17 -0.86 C67.61 1.33, 63.05 3.53, 58.66 5.64 M58.66 5.64 C58.61 2.23, 58.57 -1.18, 58.5 -7.04 M58.66 5.64 C58.61 1.88, 58.57 -1.89, 58.5 -7.04 M58.5 -7.04 C62.67 -5.16, 66.83 -3.28, 72.17 -0.86 M58.5 -7.04 C63.53 -4.77, 68.56 -2.5, 72.17 -0.86 M72.17 -0.86 C72.17 -0.86, 72.17 -0.86, 72.17 -0.86 M72.17 -0.86 C72.17 -0.86, 72.17 -0.86, 72.17 -0.86" stroke="#1e1e1e" stroke-width="1" fill="none"></path></g></g><mask></mask><g transform="translate(10 10) rotate(0 137.056640625 20.700000000000045)"><text x="0" y="0" font-family="Helvetica, Segoe UI Emoji" font-size="36.00000000000011px" fill="#c2255c" text-anchor="start" style="white-space: pre;" direction="ltr" dominant-baseline="text-before-edge">DeadDrop server</text></g><g transform="translate(34.018217062742224 904.3058618005765) rotate(0 204.134765625 20.70000000000006)"><text x="0" y="0" font-family="Helvetica, Segoe UI Emoji" font-size="36.00000000000011px" fill="#1971c2" text-anchor="start" style="white-space: pre;" direction="ltr" dominant-baseline="text-before-edge">DeadDrop agent instance</text></g><g stroke-linecap="round" transform="translate(551.2033372897713 1224.8960633096299) rotate(0 74.5 30)"><path d="M0 0 L149 0 L149 60 L0 60" stroke="none" stroke-width="0" fill="#a5d8ff"></path><path d="M0 0 C43.48 0, 86.97 0, 149 0 M0 0 C47.09 0, 94.18 0, 149 0 M149 0 C149 12.94, 149 25.87, 149 60 M149 0 C149 21.23, 149 42.46, 149 60 M149 60 C118.9 60, 88.79 60, 0 60 M149 60 C117.72 60, 86.45 60, 0 60 M0 60 C0 40.19, 0 20.38, 0 0 M0 60 C0 42.38, 0 24.76, 0 0" stroke="#1e1e1e" stroke-width="1" fill="none"></path></g><g transform="translate(585.1271654147713 1231.8960633096299) rotate(0 40.576171875 23)"><text x="40.576171875" y="0" font-family="Helvetica, Segoe UI Emoji" font-size="20px" fill="#1e1e1e" text-anchor="middle" style="white-space: pre;" direction="ltr" dominant-baseline="text-before-edge">Message</text><text x="40.576171875" y="23" font-family="Helvetica, Segoe UI Emoji" font-size="20px" fill="#1e1e1e" text-anchor="middle" style="white-space: pre;" direction="ltr" dominant-baseline="text-before-edge">dispatch</text></g><g stroke-linecap="round" transform="translate(322.27289256560925 1350.77513352276) rotate(0 74.5 30)"><path d="M0 0 C31.04 0, 62.08 0, 149 0 M0 0 C42.39 0, 84.77 0, 149 0 M149 0 C149 13.54, 149 27.08, 149 60 M149 0 C149 23.85, 149 47.69, 149 60 M149 60 C108.42 60, 67.84 60, 0 60 M149 60 C113.52 60, 78.05 60, 0 60 M0 60 C0 38.62, 0 17.23, 0 0 M0 60 C0 46.53, 0 33.06, 0 0" stroke="#1e1e1e" stroke-width="1" fill="none"></path></g><g transform="translate(345.08832225310925 1369.27513352276) rotate(0 51.6845703125 11.5)"><text x="51.6845703125" y="0" font-family="Helvetica, Segoe UI Emoji" font-size="20px" fill="#1e1e1e" text-anchor="middle" style="white-space: pre;" direction="ltr" dominant-baseline="text-before-edge">Task broker</text></g><g stroke-linecap="round" transform="translate(43.122158209729605 1335.609546497621) rotate(0 74.5 41)"><path d="M0 0 C59.04 0, 118.07 0, 149 0 M0 0 C37.11 0, 74.23 0, 149 0 M149 0 C149 20.11, 149 40.21, 149 82 M149 0 C149 32.14, 149 64.28, 149 82 M149 82 C116.06 82, 83.11 82, 0 82 M149 82 C105.43 82, 61.87 82, 0 82 M0 82 C0 62.35, 0 42.7, 0 0 M0 82 C0 54.48, 0 26.96, 0 0" stroke="#1e1e1e" stroke-width="1" fill="none"></path></g><g transform="translate(58.696376959729605 1353.609546497621) rotate(0 58.92578125 23)"><text x="58.92578125" y="0" font-family="Helvetica, Segoe UI Emoji" font-size="20px" fill="#1e1e1e" text-anchor="middle" style="white-space: pre;" direction="ltr" dominant-baseline="text-before-edge">Agent control</text><text x="58.92578125" y="23" font-family="Helvetica, Segoe UI Emoji" font-size="20px" fill="#1e1e1e" text-anchor="middle" style="white-space: pre;" direction="ltr" dominant-baseline="text-before-edge">unit</text></g><g stroke-linecap="round"><g transform="translate(713.752223365987 1142.9468915613572) rotate(0 -46.01960907922279 39.572731469731735)"><path d="M0 0 C-30.31 0.36, -60.62 0.72, -91.1 1.09 M0 0 C-22.15 0.26, -44.3 0.53, -91.1 1.09 M-91.1 1.09 C-91.31 18.65, -91.52 36.22, -92.04 79.15 M-91.1 1.09 C-91.47 31.97, -91.84 62.85, -92.04 79.15" stroke="#1e1e1e" stroke-width="1" fill="none"></path></g><g transform="translate(713.752223365987 1142.9468915613572) rotate(0 -46.01960907922279 39.572731469731735)"><path d="M0 0 L-13.52 6.5 L-13.67 -6.18 L0 0" stroke="none" stroke-width="0" fill="#1e1e1e" fill-rule="evenodd"></path><path d="M0 0 C-4.5 2.16, -9 4.33, -13.52 6.5 M0 0 C-3.29 1.58, -6.57 3.16, -13.52 6.5 M-13.52 6.5 C-13.55 3.65, -13.59 0.8, -13.67 -6.18 M-13.52 6.5 C-13.58 1.49, -13.64 -3.53, -13.67 -6.18 M-13.67 -6.18 C-9.56 -4.32, -5.45 -2.46, 0 0 M-13.67 -6.18 C-8.51 -3.84, -3.34 -1.51, 0 0 M0 0 C0 0, 0 0, 0 0 M0 0 C0 0, 0 0, 0 0" stroke="#1e1e1e" stroke-width="1" fill="none"></path></g><g transform="translate(713.752223365987 1142.9468915613572) rotate(0 -46.01960907922279 39.572731469731735)"><path d="M-92.04 79.15 L-98.22 65.48 L-85.54 65.63 L-92.04 79.15" stroke="none" stroke-width="0" fill="#1e1e1e" fill-rule="evenodd"></path><path d="M-92.04 79.15 C-94.09 74.6, -96.15 70.05, -98.22 65.48 M-92.04 79.15 C-93.54 75.82, -95.04 72.5, -98.22 65.48 M-98.22 65.48 C-95.36 65.51, -92.51 65.54, -85.54 65.63 M-98.22 65.48 C-93.2 65.54, -88.18 65.6, -85.54 65.63 M-85.54 65.63 C-87.49 69.69, -89.45 73.76, -92.04 79.15 M-85.54 65.63 C-87.99 70.73, -90.45 75.84, -92.04 79.15 M-92.04 79.15 C-92.04 79.15, -92.04 79.15, -92.04 79.15 M-92.04 79.15 C-92.04 79.15, -92.04 79.15, -92.04 79.15" stroke="#1e1e1e" stroke-width="1" fill="none"></path></g></g><mask></mask><g stroke-linecap="round"><g transform="translate(1193.2135366005527 1159.5003645014294) rotate(0 171.53364859577277 -95.39953290006571)"><path d="M0 0 C93.16 -0.5, 186.32 -1.01, 342.05 -1.85 M0 0 C81.44 -0.44, 162.88 -0.88, 342.05 -1.85 M342.05 -1.85 C342.42 -69.19, 342.78 -136.53, 343.07 -190.8 M342.05 -1.85 C342.28 -44.27, 342.51 -86.69, 343.07 -190.8" stroke="#1e1e1e" stroke-width="1" fill="none"></path></g><g transform="translate(1193.2135366005527 1159.5003645014294) rotate(0 171.53364859577277 -95.39953290006571)"><path d="M0 0 L13.56 -6.41 L13.63 6.27 L0 0" stroke="none" stroke-width="0" fill="#1e1e1e" fill-rule="evenodd"></path><path d="M0 0 C3.69 -1.75, 7.39 -3.49, 13.56 -6.41 M0 0 C3.23 -1.53, 6.46 -3.05, 13.56 -6.41 M13.56 -6.41 C13.58 -1.89, 13.61 2.62, 13.63 6.27 M13.56 -6.41 C13.58 -3.57, 13.59 -0.72, 13.63 6.27 M13.63 6.27 C8.61 3.96, 3.59 1.65, 0 0 M13.63 6.27 C9.9 4.55, 6.17 2.84, 0 0 M0 0 C0 0, 0 0, 0 0 M0 0 C0 0, 0 0, 0 0" stroke="#1e1e1e" stroke-width="1" fill="none"></path></g><g transform="translate(1193.2135366005527 1159.5003645014294) rotate(0 171.53364859577277 -95.39953290006571)"><path d="M343.07 -190.8 L349.33 -177.17 L336.66 -177.24 L343.07 -190.8" stroke="none" stroke-width="0" fill="#1e1e1e" fill-rule="evenodd"></path><path d="M343.07 -190.8 C344.77 -187.09, 346.48 -183.38, 349.33 -177.17 M343.07 -190.8 C344.56 -187.55, 346.05 -184.31, 349.33 -177.17 M349.33 -177.17 C344.81 -177.19, 340.3 -177.22, 336.66 -177.24 M349.33 -177.17 C346.49 -177.19, 343.64 -177.2, 336.66 -177.24 M336.66 -177.24 C339.02 -182.23, 341.38 -187.22, 343.07 -190.8 M336.66 -177.24 C338.41 -180.95, 340.16 -184.66, 343.07 -190.8 M343.07 -190.8 C343.07 -190.8, 343.07 -190.8, 343.07 -190.8 M343.07 -190.8 C343.07 -190.8, 343.07 -190.8, 343.07 -190.8" stroke="#1e1e1e" stroke-width="1" fill="none"></path></g></g><mask></mask><g stroke-linecap="round" transform="translate(1123.7845472032952 1731.5326483303038) rotate(0 74.5 42.5)"><path d="M0 0 C33.15 0, 66.3 0, 149 0 M149 0 C149 22.87, 149 45.75, 149 85 M149 85 C92.89 85, 36.78 85, 0 85 M0 85 C0 64.1, 0 43.2, 0 0" stroke="#1e1e1e" stroke-width="1.5" fill="none" stroke-dasharray="8 9"></path></g><g transform="translate(1135.4573987657952 1751.0326483303038) rotate(0 62.8271484375 23)"><text x="62.8271484375" y="0" font-family="Helvetica, Segoe UI Emoji" font-size="20px" fill="#1e1e1e" text-anchor="middle" style="white-space: pre;" direction="ltr" dominant-baseline="text-before-edge">Another agent</text><text x="62.8271484375" y="23" font-family="Helvetica, Segoe UI Emoji" font-size="20px" fill="#1e1e1e" text-anchor="middle" style="white-space: pre;" direction="ltr" dominant-baseline="text-before-edge">instance</text></g><g stroke-linecap="round"><g transform="translate(1194.9400869709666 1632.8563809518075) rotate(0 -0.13003883584752352 44.33813368924808)"><path d="M0 0 C-0.06 19.95, -0.12 39.91, -0.26 88.68" stroke="#1e1e1e" stroke-width="1.5" fill="none" stroke-dasharray="8 9"></path></g><g transform="translate(1194.9400869709666 1632.8563809518075) rotate(0 -0.13003883584752352 44.33813368924808)"><path d="M0 0 L6.3 13.61 L-6.38 13.58 L0 0" stroke="none" stroke-width="0" fill="#1e1e1e" fill-rule="evenodd"></path><path d="M0 0 C1.42 3.06, 2.84 6.13, 6.3 13.61 M6.3 13.61 C1.28 13.6, -3.73 13.58, -6.38 13.58 M-6.38 13.58 C-4.46 9.49, -2.54 5.41, 0 0 M0 0 C0 0, 0 0, 0 0" stroke="#1e1e1e" stroke-width="1.5" fill="none"></path></g><g transform="translate(1194.9400869709666 1632.8563809518075) rotate(0 -0.13003883584752352 44.33813368924808)"><path d="M-0.26 88.68 L-6.56 75.06 L6.12 75.1 L-0.26 88.68" stroke="none" stroke-width="0" fill="#1e1e1e" fill-rule="evenodd"></path><path d="M-0.26 88.68 C-1.68 85.61, -3.1 82.55, -6.56 75.06 M-6.56 75.06 C-1.54 75.08, 3.47 75.09, 6.12 75.1 M6.12 75.1 C4.2 79.18, 2.28 83.26, -0.26 88.68 M-0.26 88.68 C-0.26 88.68, -0.26 88.68, -0.26 88.68" stroke="#1e1e1e" stroke-width="1.5" fill="none"></path></g></g><mask></mask><g stroke-linecap="round"><g transform="translate(546.5595506222091 1252.698498749522) rotate(0 -75.7422555132382 43.87141477684983)"><path d="M0 0 C-33.36 0.09, -66.73 0.19, -150.9 0.42 M0 0 C-44.12 0.12, -88.24 0.24, -150.9 0.42 M-150.9 0.42 C-151.04 21.35, -151.18 42.27, -151.48 87.74 M-150.9 0.42 C-151.09 29.72, -151.29 59.03, -151.48 87.74" stroke="#1e1e1e" stroke-width="1" fill="none"></path></g><g transform="translate(546.5595506222091 1252.698498749522) rotate(0 -75.7422555132382 43.87141477684983)"><path d="M0 0 L-13.58 6.38 L-13.61 -6.3 L0 0" stroke="none" stroke-width="0" fill="#1e1e1e" fill-rule="evenodd"></path><path d="M0 0 C-3 1.41, -6 2.82, -13.58 6.38 M0 0 C-3.97 1.86, -7.94 3.73, -13.58 6.38 M-13.58 6.38 C-13.59 3.34, -13.59 0.3, -13.61 -6.3 M-13.58 6.38 C-13.59 2.12, -13.6 -2.13, -13.61 -6.3 M-13.61 -6.3 C-8.86 -4.1, -4.11 -1.9, 0 0 M-13.61 -6.3 C-8.77 -4.06, -3.93 -1.82, 0 0 M0 0 C0 0, 0 0, 0 0 M0 0 C0 0, 0 0, 0 0" stroke="#1e1e1e" stroke-width="1" fill="none"></path></g><g transform="translate(546.5595506222091 1252.698498749522) rotate(0 -75.7422555132382 43.87141477684983)"><path d="M-151.48 87.74 L-157.73 74.11 L-145.05 74.19 L-151.48 87.74" stroke="none" stroke-width="0" fill="#1e1e1e" fill-rule="evenodd"></path><path d="M-151.48 87.74 C-152.87 84.73, -154.25 81.71, -157.73 74.11 M-151.48 87.74 C-153.31 83.76, -155.14 79.77, -157.73 74.11 M-157.73 74.11 C-154.69 74.13, -151.66 74.15, -145.05 74.19 M-157.73 74.11 C-153.48 74.13, -149.22 74.16, -145.05 74.19 M-145.05 74.19 C-147.3 78.92, -149.54 83.65, -151.48 87.74 M-145.05 74.19 C-147.34 79.01, -149.63 83.83, -151.48 87.74 M-151.48 87.74 C-151.48 87.74, -151.48 87.74, -151.48 87.74 M-151.48 87.74 C-151.48 87.74, -151.48 87.74, -151.48 87.74" stroke="#1e1e1e" stroke-width="1" fill="none"></path></g></g><mask></mask><g stroke-linecap="round"><g transform="translate(579.3076676253787 1387.6574371590386) rotate(0 -48.183591621049175 -0.1622226914819862)"><path d="M0 0 C-31.82 -0.11, -63.64 -0.21, -96.37 -0.32 M0 0 C-28.3 -0.1, -56.61 -0.19, -96.37 -0.32" stroke="#1e1e1e" stroke-width="1" fill="none"></path></g><g transform="translate(579.3076676253787 1387.6574371590386) rotate(0 -48.183591621049175 -0.1622226914819862)"><path d="M0 0 L-13.62 6.29 L-13.57 -6.39 L0 0" stroke="none" stroke-width="0" fill="#1e1e1e" fill-rule="evenodd"></path><path d="M0 0 C-4.5 2.08, -8.99 4.16, -13.62 6.29 M0 0 C-4 1.85, -8 3.7, -13.62 6.29 M-13.62 6.29 C-13.61 3.29, -13.6 0.3, -13.57 -6.39 M-13.62 6.29 C-13.61 3.27, -13.6 0.25, -13.57 -6.39 M-13.57 -6.39 C-10.15 -4.77, -6.72 -3.16, 0 0 M-13.57 -6.39 C-8.64 -4.06, -3.7 -1.74, 0 0 M0 0 C0 0, 0 0, 0 0 M0 0 C0 0, 0 0, 0 0" stroke="#1e1e1e" stroke-width="1" fill="none"></path></g><g transform="translate(579.3076676253787 1387.6574371590386) rotate(0 -48.183591621049175 -0.1622226914819862)"><path d="M-96.37 -0.32 L-82.75 -6.62 L-82.79 6.06 L-96.37 -0.32" stroke="none" stroke-width="0" fill="#1e1e1e" fill-rule="evenodd"></path><path d="M-96.37 -0.32 C-91.87 -2.4, -87.38 -4.48, -82.75 -6.62 M-96.37 -0.32 C-92.37 -2.17, -88.37 -4.02, -82.75 -6.62 M-82.75 -6.62 C-82.76 -3.62, -82.77 -0.62, -82.79 6.06 M-82.75 -6.62 C-82.76 -3.59, -82.77 -0.57, -82.79 6.06 M-82.79 6.06 C-86.22 4.45, -89.65 2.84, -96.37 -0.32 M-82.79 6.06 C-87.73 3.74, -92.67 1.42, -96.37 -0.32 M-96.37 -0.32 C-96.37 -0.32, -96.37 -0.32, -96.37 -0.32 M-96.37 -0.32 C-96.37 -0.32, -96.37 -0.32, -96.37 -0.32" stroke="#1e1e1e" stroke-width="1" fill="none"></path></g></g><mask></mask><g stroke-linecap="round"><g transform="translate(395.5011224758093 1418.7735600911678) rotate(0 204.91723009027857 87.18698277335989)"><path d="M0 0 C-0.52 69.29, -1.04 138.57, -1.3 173.68 M0 0 C-0.49 65.73, -0.99 131.47, -1.3 173.68 M-1.3 173.68 C133.7 173.91, 268.71 174.13, 411.14 174.37 M-1.3 173.68 C140.81 173.92, 282.93 174.16, 411.14 174.37" stroke="#1e1e1e" stroke-width="1" fill="none"></path></g><g transform="translate(395.5011224758093 1418.7735600911678) rotate(0 204.91723009027857 87.18698277335989)"><path d="M0 0 L6.24 13.64 L-6.44 13.55 L0 0" stroke="none" stroke-width="0" fill="#1e1e1e" fill-rule="evenodd"></path><path d="M0 0 C2.49 5.44, 4.98 10.88, 6.24 13.64 M0 0 C2.36 5.16, 4.72 10.33, 6.24 13.64 M6.24 13.64 C2.09 13.61, -2.06 13.58, -6.44 13.55 M6.24 13.64 C1.87 13.61, -2.5 13.58, -6.44 13.55 M-6.44 13.55 C-4.12 8.67, -1.8 3.79, 0 0 M-6.44 13.55 C-5.15 10.84, -3.86 8.13, 0 0 M0 0 C0 0, 0 0, 0 0 M0 0 C0 0, 0 0, 0 0" stroke="#1e1e1e" stroke-width="1" fill="none"></path></g><g transform="translate(395.5011224758093 1418.7735600911678) rotate(0 204.91723009027857 87.18698277335989)"><path d="M411.14 174.37 L397.53 180.69 L397.56 168.01 L411.14 174.37" stroke="none" stroke-width="0" fill="#1e1e1e" fill-rule="evenodd"></path><path d="M411.14 174.37 C405.71 176.89, 400.28 179.41, 397.53 180.69 M411.14 174.37 C405.99 176.76, 400.84 179.16, 397.53 180.69 M397.53 180.69 C397.54 176.54, 397.55 172.39, 397.56 168.01 M397.53 180.69 C397.54 176.32, 397.55 171.95, 397.56 168.01 M397.56 168.01 C402.45 170.3, 407.34 172.59, 411.14 174.37 M397.56 168.01 C400.27 169.28, 402.99 170.56, 411.14 174.37 M411.14 174.37 C411.14 174.37, 411.14 174.37, 411.14 174.37 M411.14 174.37 C411.14 174.37, 411.14 174.37, 411.14 174.37" stroke="#1e1e1e" stroke-width="1" fill="none"></path></g></g><mask></mask><g stroke-linecap="round"><g transform="translate(308.43647060169417 1379.6149430744506) rotate(0 -54.92678399543985 0.31482030412956874)"><path d="M0 0 C-39.15 0.22, -78.3 0.45, -109.85 0.63 M0 0 C-24.66 0.14, -49.33 0.28, -109.85 0.63" stroke="#1e1e1e" stroke-width="1" fill="none"></path></g><g transform="translate(308.43647060169417 1379.6149430744506) rotate(0 -54.92678399543985 0.31482030412956874)"><path d="M0 0 L-13.56 6.42 L-13.63 -6.26 L0 0" stroke="none" stroke-width="0" fill="#1e1e1e" fill-rule="evenodd"></path><path d="M0 0 C-4.83 2.29, -9.66 4.57, -13.56 6.42 M0 0 C-3.04 1.44, -6.09 2.88, -13.56 6.42 M-13.56 6.42 C-13.58 1.75, -13.61 -2.92, -13.63 -6.26 M-13.56 6.42 C-13.58 2.95, -13.6 -0.52, -13.63 -6.26 M-13.63 -6.26 C-10.66 -4.9, -7.69 -3.53, 0 0 M-13.63 -6.26 C-10.04 -4.61, -6.45 -2.96, 0 0 M0 0 C0 0, 0 0, 0 0 M0 0 C0 0, 0 0, 0 0" stroke="#1e1e1e" stroke-width="1" fill="none"></path></g><g transform="translate(308.43647060169417 1379.6149430744506) rotate(0 -54.92678399543985 0.31482030412956874)"><path d="M-109.85 0.63 L-96.3 -5.79 L-96.22 6.89 L-109.85 0.63" stroke="none" stroke-width="0" fill="#1e1e1e" fill-rule="evenodd"></path><path d="M-109.85 0.63 C-105.02 -1.66, -100.19 -3.94, -96.3 -5.79 M-109.85 0.63 C-106.81 -0.81, -103.77 -2.25, -96.3 -5.79 M-96.3 -5.79 C-96.27 -1.12, -96.24 3.55, -96.22 6.89 M-96.3 -5.79 C-96.28 -2.32, -96.26 1.15, -96.22 6.89 M-96.22 6.89 C-99.19 5.53, -102.16 4.16, -109.85 0.63 M-96.22 6.89 C-99.81 5.24, -103.4 3.59, -109.85 0.63 M-109.85 0.63 C-109.85 0.63, -109.85 0.63, -109.85 0.63 M-109.85 0.63 C-109.85 0.63, -109.85 0.63, -109.85 0.63" stroke="#1e1e1e" stroke-width="1" fill="none"></path></g></g><mask></mask><g stroke-linecap="round" transform="translate(39.966694682910656 1612.1013067850738) rotate(0 74.5 30)"><path d="M0 0 C56.11 0, 112.22 0, 149 0 M0 0 C36.64 0, 73.28 0, 149 0 M149 0 C149 23.85, 149 47.69, 149 60 M149 0 C149 14.62, 149 29.25, 149 60 M149 60 C105.64 60, 62.29 60, 0 60 M149 60 C117.14 60, 85.28 60, 0 60 M0 60 C0 37.01, 0 14.02, 0 0 M0 60 C0 37.88, 0 15.75, 0 0" stroke="#1e1e1e" stroke-width="1" fill="none"></path></g><g transform="translate(61.097554057910656 1630.6013067850738) rotate(0 53.369140625 11.5)"><text x="53.369140625" y="0" font-family="Helvetica, Segoe UI Emoji" font-size="20px" fill="#1e1e1e" text-anchor="middle" style="white-space: pre;" direction="ltr" dominant-baseline="text-before-edge">Local config</text></g><g stroke-linecap="round"><g transform="translate(117.08054190033545 1420.4775913753274) rotate(0 -0.24707312381951851 93.31251069176227)"><path d="M0 0 C-0.15 56.11, -0.3 112.23, -0.49 186.63 M0 0 C-0.19 70.5, -0.37 141, -0.49 186.63" stroke="#1e1e1e" stroke-width="1" fill="none"></path></g><g transform="translate(117.08054190033545 1420.4775913753274) rotate(0 -0.24707312381951851 93.31251069176227)"><path d="M0 0 L6.3 13.61 L-6.38 13.58 L0 0" stroke="none" stroke-width="0" fill="#1e1e1e" fill-rule="evenodd"></path><path d="M0 0 C1.9 4.09, 3.79 8.19, 6.3 13.61 M0 0 C2.38 5.14, 4.76 10.28, 6.3 13.61 M6.3 13.61 C2.98 13.6, -0.34 13.59, -6.38 13.58 M6.3 13.61 C3.76 13.6, 1.22 13.6, -6.38 13.58 M-6.38 13.58 C-4.34 9.24, -2.3 4.91, 0 0 M-6.38 13.58 C-4.15 8.84, -1.93 4.11, 0 0 M0 0 C0 0, 0 0, 0 0 M0 0 C0 0, 0 0, 0 0" stroke="#1e1e1e" stroke-width="1" fill="none"></path></g><g transform="translate(117.08054190033545 1420.4775913753274) rotate(0 -0.24707312381951851 93.31251069176227)"><path d="M-0.49 186.63 L-6.8 173.01 L5.88 173.05 L-0.49 186.63" stroke="none" stroke-width="0" fill="#1e1e1e" fill-rule="evenodd"></path><path d="M-0.49 186.63 C-2.39 182.53, -4.28 178.44, -6.8 173.01 M-0.49 186.63 C-2.88 181.48, -5.26 176.34, -6.8 173.01 M-6.8 173.01 C-3.47 173.02, -0.15 173.03, 5.88 173.05 M-6.8 173.01 C-4.25 173.02, -1.71 173.03, 5.88 173.05 M5.88 173.05 C3.85 177.38, 1.81 181.72, -0.49 186.63 M5.88 173.05 C3.66 177.78, 1.43 182.52, -0.49 186.63 M-0.49 186.63 C-0.49 186.63, -0.49 186.63, -0.49 186.63 M-0.49 186.63 C-0.49 186.63, -0.49 186.63, -0.49 186.63" stroke="#1e1e1e" stroke-width="1" fill="none"></path></g></g><mask></mask><g stroke-linecap="round" transform="translate(595.3076676253788 1326.8909802792646) rotate(0 351.65640580454306 55.538461538461604)"><path d="M0 0 L703.31 0 L703.31 111.08 L0 111.08" stroke="none" stroke-width="0" fill="#d0bfff"></path><path d="M0 0 C168.55 0, 337.09 0, 703.31 0 M0 0 C236.03 0, 472.05 0, 703.31 0 M703.31 0 C703.31 38.77, 703.31 77.54, 703.31 111.08 M703.31 0 C703.31 39.5, 703.31 79, 703.31 111.08 M703.31 111.08 C515.25 111.08, 327.19 111.08, 0 111.08 M703.31 111.08 C493.87 111.08, 284.43 111.08, 0 111.08 M0 111.08 C0 75.51, 0 39.94, 0 0 M0 111.08 C0 79.82, 0 48.57, 0 0" stroke="#6741d9" stroke-width="1" fill="none"></path></g><g transform="translate(781.8791124924219 1361.7294418177262) rotate(0 165.0849609375 20.69999999999999)"><text x="165.0849609375" y="0" font-family="Helvetica, Segoe UI Emoji" font-size="36px" fill="#1e1e1e" text-anchor="middle" style="white-space: pre;" direction="ltr" dominant-baseline="text-before-edge">Command execution</text></g><g stroke-linecap="round" transform="translate(597.584149612379 1531.0746228914313) rotate(0 352.5899267999842 56.87179487179492)"><path d="M0 0 L705.18 0 L705.18 113.74 L0 113.74" stroke="none" stroke-width="0" fill="#eaddd7"></path><path d="M0 0 C166.78 0, 333.55 0, 705.18 0 M0 0 C168.15 0, 336.29 0, 705.18 0 M705.18 0 C705.18 28.71, 705.18 57.41, 705.18 113.74 M705.18 0 C705.18 41.37, 705.18 82.75, 705.18 113.74 M705.18 113.74 C464.27 113.74, 223.35 113.74, 0 113.74 M705.18 113.74 C466.8 113.74, 228.42 113.74, 0 113.74 M0 113.74 C0 86.68, 0 59.61, 0 0 M0 113.74 C0 86.33, 0 58.91, 0 0" stroke="#846358" stroke-width="1" fill="none"></path></g><g transform="translate(814.1281779748631 1567.2464177632262) rotate(0 136.0458984375 20.69999999999999)"><text x="136.0458984375" y="0" font-family="Helvetica, Segoe UI Emoji" font-size="36px" fill="#1e1e1e" text-anchor="middle" style="white-space: pre;" direction="ltr" dominant-baseline="text-before-edge">Direct forwarding</text></g><g stroke-linecap="round" transform="translate(520.1037857026638 589.5908683692462) rotate(0 390.2228186947972 138.417960602984)"><path d="M0 0 L780.45 0 L780.45 276.84 L0 276.84" stroke="none" stroke-width="0" fill="#b2f2bb"></path><path d="M0 0 C310.17 0, 620.34 0, 780.45 0 M0 0 C190.21 0, 380.43 0, 780.45 0 M780.45 0 C780.45 80.56, 780.45 161.11, 780.45 276.84 M780.45 0 C780.45 59.19, 780.45 118.39, 780.45 276.84 M780.45 276.84 C481.38 276.84, 182.32 276.84, 0 276.84 M780.45 276.84 C492.66 276.84, 204.87 276.84, 0 276.84 M0 276.84 C0 205.58, 0 134.33, 0 0 M0 276.84 C0 209.04, 0 141.24, 0 0" stroke="#2f9e44" stroke-width="1" fill="none"></path></g><g transform="translate(755.208440334961 707.3088289722302) rotate(0 155.1181640625 20.700000000000003)"><text x="155.1181640625" y="0" font-family="Helvetica, Segoe UI Emoji" font-size="36px" fill="#1e1e1e" text-anchor="middle" style="white-space: pre;" direction="ltr" dominant-baseline="text-before-edge">Payload generation</text></g><g stroke-linecap="round"><g transform="translate(113.40431453916722 1232.5739816242112) rotate(0 -0.6122194719266645 48.1793733251921)"><path d="M0 0 C-0.32 25.26, -0.64 50.52, -1.22 96.36 M0 0 C-0.25 19.32, -0.49 38.65, -1.22 96.36" stroke="#1e1e1e" stroke-width="1" fill="none"></path></g><g transform="translate(113.40431453916722 1232.5739816242112) rotate(0 -0.6122194719266645 48.1793733251921)"><path d="M0 0 L6.17 13.67 L-6.51 13.51 L0 0" stroke="none" stroke-width="0" fill="#1e1e1e" fill-rule="evenodd"></path><path d="M0 0 C1.62 3.58, 3.23 7.17, 6.17 13.67 M0 0 C1.24 2.74, 2.47 5.48, 6.17 13.67 M6.17 13.67 C2.12 13.62, -1.93 13.57, -6.51 13.51 M6.17 13.67 C1.74 13.62, -2.68 13.56, -6.51 13.51 M-6.51 13.51 C-4.38 9.09, -2.25 4.68, 0 0 M-6.51 13.51 C-4.92 10.22, -3.34 6.93, 0 0 M0 0 C0 0, 0 0, 0 0 M0 0 C0 0, 0 0, 0 0" stroke="#1e1e1e" stroke-width="1" fill="none"></path></g></g><mask></mask><g stroke-linecap="round" transform="translate(40.45659328852389 1158.073648122498) rotate(0 74.5 30)"><path d="M0 0 C52.01 0, 104.02 0, 149 0 M0 0 C52.98 0, 105.97 0, 149 0 M149 0 C149 16.04, 149 32.09, 149 60 M149 0 C149 17.87, 149 35.73, 149 60 M149 60 C101.29 60, 53.58 60, 0 60 M149 60 C107.08 60, 65.15 60, 0 60 M0 60 C0 37.32, 0 14.64, 0 0 M0 60 C0 44.29, 0 28.58, 0 0" stroke="#1e1e1e" stroke-width="1" fill="none"></path></g><g transform="translate(79.36577297602389 1165.073648122498) rotate(0 35.5908203125 23)"><text x="35.5908203125" y="0" font-family="Helvetica, Segoe UI Emoji" font-size="20px" fill="#1e1e1e" text-anchor="middle" style="white-space: pre;" direction="ltr" dominant-baseline="text-before-edge">Logging</text><text x="35.5908203125" y="23" font-family="Helvetica, Segoe UI Emoji" font-size="20px" fill="#1e1e1e" text-anchor="middle" style="white-space: pre;" direction="ltr" dominant-baseline="text-before-edge">module</text></g><g stroke-linecap="round"><g transform="translate(111.33653274997664 1049.7126765769153) rotate(0 0.04611609128721739 49.117331897504286)"><path d="M0 0 C0.03 35.38, 0.07 70.77, 0.09 98.23 M0 0 C0.02 19.65, 0.04 39.3, 0.09 98.23" stroke="#1e1e1e" stroke-width="1" fill="none"></path></g><g transform="translate(111.33653274997664 1049.7126765769153) rotate(0 0.04611609128721739 49.117331897504286)"><path d="M0 0 L6.35 13.59 L-6.33 13.6 L0 0" stroke="none" stroke-width="0" fill="#1e1e1e" fill-rule="evenodd"></path><path d="M0 0 C2.29 4.89, 4.58 9.79, 6.35 13.59 M0 0 C1.27 2.72, 2.54 5.44, 6.35 13.59 M6.35 13.59 C3.25 13.59, 0.15 13.59, -6.33 13.6 M6.35 13.59 C1.29 13.59, -3.76 13.6, -6.33 13.6 M-6.33 13.6 C-4.68 10.07, -3.04 6.54, 0 0 M-6.33 13.6 C-4.78 10.28, -3.24 6.97, 0 0 M0 0 C0 0, 0 0, 0 0 M0 0 C0 0, 0 0, 0 0" stroke="#1e1e1e" stroke-width="1" fill="none"></path></g></g><mask></mask><g stroke-linecap="round" transform="translate(37.79102836731818 978.0929286680673) rotate(0 74.5 30)"><path d="M0 0 C32.47 0, 64.94 0, 149 0 M0 0 C39.24 0, 78.47 0, 149 0 M149 0 C149 22.4, 149 44.81, 149 60 M149 0 C149 17.76, 149 35.51, 149 60 M149 60 C89.81 60, 30.63 60, 0 60 M149 60 C95.41 60, 41.81 60, 0 60 M0 60 C0 42.93, 0 25.87, 0 0 M0 60 C0 36.49, 0 12.99, 0 0" stroke="#1e1e1e" stroke-width="1" fill="none"></path></g><g transform="translate(59.47364555481818 996.5929286680673) rotate(0 52.8173828125 11.5)"><text x="52.8173828125" y="0" font-family="Helvetica, Segoe UI Emoji" font-size="20px" fill="#1e1e1e" text-anchor="middle" style="white-space: pre;" direction="ltr" dominant-baseline="text-before-edge">Log storage</text></g><g transform="translate(528.6662171131666 129.40524184463368) rotate(0 231.15234375 20.69999999999999)"><text x="0" y="0" font-family="Helvetica, Segoe UI Emoji" font-size="36px" fill="#1e1e1e" text-anchor="start" style="white-space: pre;" direction="ltr" dominant-baseline="text-before-edge">Message generation/fetching</text></g><g transform="translate(1352.8284647338025 803.3465430096835) rotate(0 16.6796875 11.5)"><text x="0" y="0" font-family="Helvetica, Segoe UI Emoji" font-size="20px" fill="#1e1e1e" text-anchor="start" style="white-space: pre;" direction="ltr" dominant-baseline="text-before-edge">[14]</text></g><g transform="translate(1548.3294940229125 805.6410632514066) rotate(0 41.80078125 9.200000000000003)"><text x="0" y="0" font-family="Helvetica, Segoe UI Emoji" font-size="16px" fill="#1e1e1e" text-anchor="start" style="white-space: pre;" direction="ltr" dominant-baseline="text-before-edge">API request</text></g><g transform="translate(1552.2036756456682 969.0372074860236) rotate(0 41.80078125 9.200000000000003)"><text x="0" y="0" font-family="Helvetica, Segoe UI Emoji" font-size="16px" fill="#1e1e1e" text-anchor="start" style="white-space: pre;" direction="ltr" dominant-baseline="text-before-edge">API request</text></g><g stroke-linecap="round" transform="translate(716.4513931293338 1038.8073651232075) rotate(0 233.548109836597 120.50740199792605)"><path d="M0 0 L467.1 0 L467.1 241.01 L0 241.01" stroke="none" stroke-width="0" fill="#eebefa"></path><path d="M0 0 C101.1 0, 202.21 0, 467.1 0 M0 0 C106.81 0, 213.63 0, 467.1 0 M467.1 0 C467.1 60.48, 467.1 120.97, 467.1 241.01 M467.1 0 C467.1 51.7, 467.1 103.39, 467.1 241.01 M467.1 241.01 C372.14 241.01, 277.18 241.01, 0 241.01 M467.1 241.01 C347.71 241.01, 228.32 241.01, 0 241.01 M0 241.01 C0 170.36, 0 99.71, 0 0 M0 241.01 C0 151.65, 0 62.29, 0 0" stroke="#9c36b5" stroke-width="1" fill="none"></path></g><g transform="translate(818.9194248409308 1138.6147671211338) rotate(0 131.080078125 20.69999999999999)"><text x="131.080078125" y="0" font-family="Helvetica, Segoe UI Emoji" font-size="36px" fill="#1e1e1e" text-anchor="middle" style="white-space: pre;" direction="ltr" dominant-baseline="text-before-edge">Protocol handler</text></g><g stroke-linecap="round"><g transform="translate(1289.948974401591 320.08835283840017) rotate(0 125.03708564283784 250.9879059211894)"><path d="M0 0 C71.72 0.17, 143.45 0.34, 250.07 0.6 M0 0 C90.27 0.22, 180.53 0.43, 250.07 0.6 M250.07 0.6 C249.67 196.19, 249.26 391.78, 249.03 501.98 M250.07 0.6 C249.69 187.09, 249.3 373.58, 249.03 501.98" stroke="#1e1e1e" stroke-width="1" fill="none"></path></g><g transform="translate(1289.948974401591 320.08835283840017) rotate(0 125.03708564283784 250.9879059211894)"><path d="M0 0 L13.61 -6.31 L13.58 6.37 L0 0" stroke="none" stroke-width="0" fill="#1e1e1e" fill-rule="evenodd"></path><path d="M0 0 C3.9 -1.81, 7.81 -3.62, 13.61 -6.31 M0 0 C4.91 -2.28, 9.83 -4.55, 13.61 -6.31 M13.61 -6.31 C13.6 -1.36, 13.59 3.59, 13.58 6.37 M13.61 -6.31 C13.6 -1.59, 13.59 3.13, 13.58 6.37 M13.58 6.37 C10.49 4.92, 7.41 3.48, 0 0 M13.58 6.37 C10.52 4.94, 7.46 3.5, 0 0 M0 0 C0 0, 0 0, 0 0 M0 0 C0 0, 0 0, 0 0" stroke="#1e1e1e" stroke-width="1" fill="none"></path></g><g transform="translate(1289.948974401591 320.08835283840017) rotate(0 125.03708564283784 250.9879059211894)"><path d="M249.03 501.98 L242.72 488.37 L255.4 488.39 L249.03 501.98" stroke="none" stroke-width="0" fill="#1e1e1e" fill-rule="evenodd"></path><path d="M249.03 501.98 C247.22 498.07, 245.41 494.17, 242.72 488.37 M249.03 501.98 C246.75 497.06, 244.48 492.15, 242.72 488.37 M242.72 488.37 C247.67 488.38, 252.61 488.39, 255.4 488.39 M242.72 488.37 C247.44 488.38, 252.15 488.39, 255.4 488.39 M255.4 488.39 C253.95 491.48, 252.51 494.57, 249.03 501.98 M255.4 488.39 C253.97 491.45, 252.53 494.51, 249.03 501.98 M249.03 501.98 C249.03 501.98, 249.03 501.98, 249.03 501.98 M249.03 501.98 C249.03 501.98, 249.03 501.98, 249.03 501.98" stroke="#1e1e1e" stroke-width="1" fill="none"></path></g></g><mask></mask><g transform="translate(458.9765062640847 990.5248195087632) rotate(0 231.15234375 20.700000000000003)"><text x="0" y="0" font-family="Helvetica, Segoe UI Emoji" font-size="36px" fill="#1e1e1e" text-anchor="start" style="white-space: pre;" direction="ltr" dominant-baseline="text-before-edge">Message generation/fetching</text></g></svg>